<svg width="28" height="25" viewBox="0 0 28 25" fill="none" xmlns="http://www.w3.org/2000/svg">
<path d="M0.179825 11.9905C0.179825 12.5781 0.631834 13.0866 1.35505 13.0866C1.70535 13.0866 2.02176 12.8945 2.30427 12.6685L13.5141 3.25545C13.8305 2.98424 14.1921 2.98424 14.5085 3.25545L25.707 12.6685C25.9782 12.8945 26.2946 13.0866 26.6449 13.0866C27.3117 13.0866 27.8202 12.6685 27.8202 12.0131C27.8202 11.6289 27.6733 11.3238 27.3795 11.0752L24.2041 8.40835V3.70745C24.2041 3.19894 23.8764 2.88254 23.3679 2.88254H21.8085C21.3112 2.88254 20.9722 3.19894 20.9722 3.70745V5.68499L15.6159 1.1875C14.6328 0.362588 13.3898 0.362588 12.4067 1.1875L0.631834 11.0752C0.326728 11.3238 0.179825 11.6628 0.179825 11.9905ZM3.8524 22.1494C3.8524 23.7767 4.86942 24.7598 6.55315 24.7598H21.4581C23.1306 24.7598 24.1589 23.7767 24.1589 22.1494V13.5612L14.7006 5.63979C14.2599 5.25558 13.7288 5.26688 13.2994 5.63979L3.8524 13.5612V22.1494ZM16.972 22.6353H11.0393V15.4032C11.0393 14.8721 11.3896 14.5331 11.9208 14.5331H16.1018C16.6329 14.5331 16.972 14.8721 16.972 15.4032V22.6353Z" fill="black"/>
</svg>
