<svg width="24" height="22" viewBox="0 0 24 22" fill="none" xmlns="http://www.w3.org/2000/svg">
<path d="M4.21414 21.1325H19.7746C22.2267 21.1325 23.5036 19.8669 23.5036 17.4487V3.69629C23.5036 1.27805 22.2267 0.0124207 19.7746 0.0124207H4.21414C1.77329 0.0124207 0.496368 1.26675 0.496368 3.69629V17.4487C0.496368 19.8669 1.77329 21.1325 4.21414 21.1325ZM4.20284 18.8838C3.26492 18.8838 2.74511 18.3979 2.74511 17.4035V7.00726C2.74511 6.01284 3.26492 5.52693 4.20284 5.52693H19.7859C20.7238 5.52693 21.2436 6.01284 21.2436 7.00726V17.4035C21.2436 18.3979 20.7238 18.8838 19.7859 18.8838H4.20284ZM9.81905 9.42551H10.4858C10.8926 9.42551 11.0282 9.3012 11.0282 8.9057V8.23898C11.0282 7.83217 10.8926 7.70787 10.4858 7.70787H9.81905C9.41224 7.70787 9.27664 7.83217 9.27664 8.23898V8.9057C9.27664 9.3012 9.41224 9.42551 9.81905 9.42551ZM13.5142 9.42551H14.1809C14.5764 9.42551 14.7121 9.3012 14.7121 8.9057V8.23898C14.7121 7.83217 14.5764 7.70787 14.1809 7.70787H13.5142C13.1074 7.70787 12.9718 7.83217 12.9718 8.23898V8.9057C12.9718 9.3012 13.1074 9.42551 13.5142 9.42551ZM17.1981 9.42551H17.8648C18.2716 9.42551 18.4072 9.3012 18.4072 8.9057V8.23898C18.4072 7.83217 18.2716 7.70787 17.8648 7.70787H17.1981C16.8026 7.70787 16.667 7.83217 16.667 8.23898V8.9057C16.667 9.3012 16.8026 9.42551 17.1981 9.42551ZM6.13518 13.0642H6.79059C7.1974 13.0642 7.333 12.9399 7.333 12.5331V11.8664C7.333 11.4708 7.1974 11.3465 6.79059 11.3465H6.13518C5.72837 11.3465 5.59277 11.4708 5.59277 11.8664V12.5331C5.59277 12.9399 5.72837 13.0642 6.13518 13.0642ZM9.81905 13.0642H10.4858C10.8926 13.0642 11.0282 12.9399 11.0282 12.5331V11.8664C11.0282 11.4708 10.8926 11.3465 10.4858 11.3465H9.81905C9.41224 11.3465 9.27664 11.4708 9.27664 11.8664V12.5331C9.27664 12.9399 9.41224 13.0642 9.81905 13.0642ZM13.5142 13.0642H14.1809C14.5764 13.0642 14.7121 12.9399 14.7121 12.5331V11.8664C14.7121 11.4708 14.5764 11.3465 14.1809 11.3465H13.5142C13.1074 11.3465 12.9718 11.4708 12.9718 11.8664V12.5331C12.9718 12.9399 13.1074 13.0642 13.5142 13.0642ZM17.1981 13.0642H17.8648C18.2716 13.0642 18.4072 12.9399 18.4072 12.5331V11.8664C18.4072 11.4708 18.2716 11.3465 17.8648 11.3465H17.1981C16.8026 11.3465 16.667 11.4708 16.667 11.8664V12.5331C16.667 12.9399 16.8026 13.0642 17.1981 13.0642ZM6.13518 16.6915H6.79059C7.1974 16.6915 7.333 16.5672 7.333 16.1717V15.505C7.333 15.0982 7.1974 14.9739 6.79059 14.9739H6.13518C5.72837 14.9739 5.59277 15.0982 5.59277 15.505V16.1717C5.59277 16.5672 5.72837 16.6915 6.13518 16.6915ZM9.81905 16.6915H10.4858C10.8926 16.6915 11.0282 16.5672 11.0282 16.1717V15.505C11.0282 15.0982 10.8926 14.9739 10.4858 14.9739H9.81905C9.41224 14.9739 9.27664 15.0982 9.27664 15.505V16.1717C9.27664 16.5672 9.41224 16.6915 9.81905 16.6915ZM13.5142 16.6915H14.1809C14.5764 16.6915 14.7121 16.5672 14.7121 16.1717V15.505C14.7121 15.0982 14.5764 14.9739 14.1809 14.9739H13.5142C13.1074 14.9739 12.9718 15.0982 12.9718 15.505V16.1717C12.9718 16.5672 13.1074 16.6915 13.5142 16.6915Z" fill="url(#paint0_linear_835_6907)"/>
<defs>
<linearGradient id="paint0_linear_835_6907" x1="0.496369" y1="21.1325" x2="27.0085" y2="14.8846" gradientUnits="userSpaceOnUse">
<stop stop-color="#E27210"/>
<stop offset="1" stop-color="#C40F61"/>
</linearGradient>
</defs>
</svg>
