<?xml version="1.0" encoding="UTF-8"?>
<svg width="179px" height="179px" viewBox="0 0 179 179" version="1.1" xmlns="http://www.w3.org/2000/svg" xmlns:xlink="http://www.w3.org/1999/xlink">
    <!-- Generator: Sketch 48.1 (47250) - http://www.bohemiancoding.com/sketch -->
    <title>algebra-znak</title>
    <desc>Created with Sketch.</desc>
    <defs>
        <linearGradient x1="100%" y1="0%" x2="0%" y2="100%" id="linearGradient-1">
            <stop stop-color="#C40F61" offset="0%"/>
            <stop stop-color="#E27210" offset="100%"/>
        </linearGradient>
    </defs>
    <g id="Page-1" stroke="none" stroke-width="1" fill="none" fill-rule="evenodd">
        <g id="algebra-znak" fill-rule="nonzero">
            <g id="Group">
                <circle id="Oval" fill="url(#linearGradient-1)" cx="89.5" cy="89.5" r="89.5"/>
                <g transform="translate(39.000000, 36.000000)" fill="#FFFFFF" id="Shape">
                    <path d="M4.88,84.357 L0,97.807 L3.458,97.807 L4.418,95.02 L9.454,95.02 L10.414,97.807 L13.872,97.807 L8.992,84.357 L4.88,84.357 Z M6.936,87.72 L8.376,91.908 L5.496,91.908 L6.936,87.72 Z M16.583,84.357 L16.583,97.807 L25.307,97.807 L25.307,94.694 L19.85,94.694 L19.85,84.357 L16.583,84.357 Z M45.098,84.357 L45.098,97.807 L54.36,97.807 L54.36,94.694 L48.365,94.694 L48.365,92.58 L53.823,92.58 L53.823,89.468 L48.365,89.468 L48.365,87.47 L54.36,87.47 L54.36,84.357 L45.098,84.357 Z M91.588,84.357 L86.708,97.807 L90.166,97.807 L91.126,95.02 L96.161,95.02 L97.121,97.807 L100.58,97.807 L95.7,84.357 L91.588,84.357 Z M93.644,87.72 L95.084,91.908 L92.203,91.908 L93.643,87.72 L93.644,87.72 Z M77.129,41.364 C74.931,42.604 72.669,43.58 70.527,44.634 L78.799,64.968 C76.289,65.231 71.388,65.808 67.723,65.835 C58.516,65.906 51.63,64.413 48.335,61.641 C46.758,60.314 46.017,58.721 46.001,56.624 C45.957,50.715 52.338,47.471 63.621,42.246 C71.024,38.818 79.376,34.597 87.563,28.526 L84.885,21.996 C74.479,29.39 69.485,31.423 60.531,35.57 C54.705,38.268 49.675,40.598 45.79,43.568 C40.943,47.274 38.606,51.563 38.645,56.679 C38.677,60.907 40.39,64.57 43.598,67.27 C48.271,71.202 56.177,73.194 67.104,73.193 C67.327,73.193 67.552,73.193 67.777,73.191 C75.791,73.132 82.476,72.038 82.757,71.992 L89.182,70.782 L77.129,41.364 Z"/>
                    <path d="M38.163,63.36 L22.33,63.36 L41.94,15.426 L42.044,15.168 C43.021,12.811 44.238,9.878 45.928,8.569 C46.512,8.117 47.834,7.392 50.244,7.339 C52.691,7.386 54.014,8.115 54.6,8.569 C56.291,9.879 57.508,12.811 58.488,15.173 L58.933,16.263 L65.079,31.286 C66.762,30.516 68.313,29.799 69.912,28.99 C70.484,28.7 71.122,28.368 71.69,28.062 L65.4,12.682 L65.265,12.357 C63.955,9.199 62.325,5.267 59.095,2.766 C57.552,1.573 54.923,0.186 50.882,0.016 C50.882,0.016 50.5,-0.001 50.312,0.001 C50.092,-0.002 49.648,0.017 49.648,0.017 C45.622,0.187 42.978,1.573 41.435,2.767 C38.205,5.267 36.575,9.199 35.265,12.355 L11.397,70.7 L44.518,70.7 C43.7217561,70.229084 42.9643531,69.6953908 42.253,69.104 C40.348,67.502 38.975,65.558 38.163,63.36 Z M41.103,90.37 L41.103,97.807 L38.317,97.807 L38.317,95.924 C37.722,97.114 36.203,98.057 34.09,98.057 C30.382,98.057 27.442,95.155 27.442,91.12 C27.442,87.086 30.382,84.107 34.417,84.107 C37.722,84.107 40.237,86.106 40.969,88.93 L37.472,88.93 C36.934,87.854 35.839,87.22 34.417,87.22 C32.187,87.22 30.747,88.795 30.747,91.159 C30.747,93.311 31.937,95.039 34.34,95.039 C35.819,95.039 37.088,94.387 37.625,93.099 L33.629,93.099 L33.629,90.371 L41.103,90.371 L41.103,90.37 Z M68.959,93.868 C68.959,96.404 67.057,97.807 64.366,97.807 L58.295,97.807 L58.295,84.357 L64.366,84.357 C66.711,84.357 68.498,85.51 68.498,87.892 C68.498,89.199 67.94,89.987 66.922,90.525 C68.305,91.024 68.959,92.35 68.959,93.868 Z M63.925,87.47 L61.562,87.47 L61.562,89.487 L64.059,89.487 C64.79,89.487 65.193,89.18 65.193,88.469 C65.193,87.643 64.713,87.469 63.925,87.469 L63.925,87.47 Z M65.654,93.579 C65.654,92.829 65.385,92.465 64.29,92.465 L61.562,92.465 L61.562,94.694 L64.29,94.694 C65.385,94.694 65.654,94.271 65.654,93.58 L65.654,93.579 Z M77.178,93.138 L76.16,93.138 L76.16,97.807 L72.893,97.807 L72.893,84.357 L78.888,84.357 C81.732,84.357 83.498,86.047 83.498,88.853 C83.498,91.005 82.462,92.292 80.808,92.831 L84.345,97.807 L80.348,97.807 L77.178,93.137 L77.178,93.138 Z M78.523,87.47 L76.16,87.47 L76.16,90.275 L78.523,90.275 C79.657,90.275 80.193,89.814 80.193,88.892 C80.193,87.95 79.618,87.47 78.523,87.47 Z"/>
                </g>
            </g>
        </g>
    </g>
</svg>