<svg width="24" height="25" viewBox="0 0 24 25" fill="none" xmlns="http://www.w3.org/2000/svg">
<path d="M11.9887 24.24C18.3959 24.24 23.6844 18.9515 23.6844 12.5555C23.6844 6.1596 18.3846 0.871094 11.9774 0.871094C5.58146 0.871094 0.30426 6.1596 0.30426 12.5555C0.30426 18.9515 5.59276 24.24 11.9887 24.24ZM11.9774 14.3975C9.76255 14.3862 8.04491 12.5329 8.04491 10.0808C8.02231 7.77553 9.77385 5.85449 11.9774 5.85449C14.1809 5.85449 15.9099 7.77553 15.9099 10.0808C15.9099 12.5329 14.1922 14.4201 11.9774 14.3975ZM11.9774 22.3076C9.44614 22.3076 6.75669 21.2567 5.05035 19.4261C6.34988 17.4824 8.92633 16.3524 11.9774 16.3524C14.9946 16.3524 17.5936 17.4598 18.9044 19.4261C17.1981 21.2567 14.5086 22.3076 11.9774 22.3076Z" fill="black"/>
</svg>
