<svg width="20" height="25" viewBox="0 0 20 25" fill="none" xmlns="http://www.w3.org/2000/svg">
<path d="M0.304413 21.0872C0.304413 23.528 1.55874 24.7937 3.97699 24.7937H16.0117C18.43 24.7937 19.6843 23.528 19.6843 21.0872V4.03515C19.6843 1.6056 18.43 0.328674 16.0117 0.328674H3.97699C1.55874 0.328674 0.304413 1.6056 0.304413 4.03515V21.0872ZM4.9601 6.6907C4.36119 6.6907 3.86398 6.19349 3.86398 5.59458C3.86398 5.00697 4.36119 4.49846 4.9601 4.49846C5.55902 4.49846 6.05623 4.99567 6.05623 5.59458C6.05623 6.20479 5.55902 6.6907 4.9601 6.6907ZM8.28237 6.37429C7.85296 6.37429 7.50266 6.02399 7.50266 5.59458C7.50266 5.17647 7.85296 4.82616 8.28237 4.82616H15.3563C15.7744 4.82616 16.1247 5.17647 16.1247 5.59458C16.1247 6.02399 15.7744 6.37429 15.3563 6.37429H8.28237ZM4.9601 10.1938C4.34989 10.1938 3.86398 9.69656 3.86398 9.09765C3.86398 8.49874 4.34989 8.01283 4.9601 8.01283C5.55902 8.01283 6.05623 8.48744 6.05623 9.09765C6.05623 9.69656 5.55902 10.1938 4.9601 10.1938ZM8.28237 9.86606C7.84166 9.86606 7.50266 9.52706 7.50266 9.09765C7.50266 8.66824 7.84166 8.32923 8.28237 8.32923H15.3563C15.7857 8.32923 16.1247 8.66824 16.1247 9.09765C16.1247 9.52706 15.7857 9.86606 15.3563 9.86606H8.28237ZM4.9601 13.8663C4.36119 13.8663 3.86398 13.3578 3.86398 12.7702C3.86398 12.1713 4.36119 11.6741 4.9601 11.6741C5.55902 11.6741 6.05623 12.16 6.05623 12.7702C6.05623 13.3691 5.55902 13.8663 4.9601 13.8663ZM8.28237 13.5273C7.85296 13.5273 7.50266 13.1883 7.50266 12.7702C7.50266 12.3408 7.84166 12.0018 8.28237 12.0018H15.3563C15.7857 12.0018 16.1247 12.3408 16.1247 12.7702C16.1247 13.1883 15.7744 13.5273 15.3563 13.5273H8.28237Z" fill="url(#paint0_linear_908_6974)"/>
<defs>
<linearGradient id="paint0_linear_908_6974" x1="0.304413" y1="24.7937" x2="23.2043" y2="20.8694" gradientUnits="userSpaceOnUse">
<stop stop-color="#E27210"/>
<stop offset="1" stop-color="#C40F61"/>
</linearGradient>
</defs>
</svg>
