<svg width="30" height="25" viewBox="0 0 30 25" fill="none" xmlns="http://www.w3.org/2000/svg">
<path d="M0.0837097 15.6405C0.0837097 18.07 1.34933 19.3244 3.80148 19.3244H4.35519V9.47057C4.35519 6.1144 6.21973 4.26117 9.5985 4.26117H24.0854V4.11426C24.0854 1.69601 22.8085 0.430389 20.3676 0.430389H3.80148C1.34933 0.430389 0.0837097 1.69601 0.0837097 4.11426V15.6405ZM9.7341 24.7146H26.1872C28.6281 24.7146 29.9163 23.4489 29.9163 21.0307V9.60617C29.9163 7.18792 28.6281 5.9223 26.1872 5.9223H9.7341C7.28195 5.9223 6.01633 7.17662 6.01633 9.60617V21.0307C6.01633 23.4489 7.28195 24.7146 9.7341 24.7146Z" fill="black"/>
</svg>
