<svg width="20" height="25" viewBox="0 0 20 25" fill="none" xmlns="http://www.w3.org/2000/svg">
<path d="M0.304413 21.0872C0.304413 23.528 1.55874 24.7937 3.97699 24.7937H16.0117C18.43 24.7937 19.6843 23.528 19.6843 21.0872V4.03516C19.6843 1.60561 18.43 0.32869 16.0117 0.32869H3.97699C1.55874 0.32869 0.304413 1.60561 0.304413 4.03516V21.0872ZM4.9601 6.69072C4.36119 6.69072 3.86398 6.19351 3.86398 5.59459C3.86398 5.00698 4.36119 4.49847 4.9601 4.49847C5.55902 4.49847 6.05623 4.99568 6.05623 5.59459C6.05623 6.20481 5.55902 6.69072 4.9601 6.69072ZM8.28237 6.37431C7.85296 6.37431 7.50265 6.024 7.50265 5.59459C7.50265 5.17649 7.85296 4.82618 8.28237 4.82618H15.3563C15.7744 4.82618 16.1247 5.17649 16.1247 5.59459C16.1247 6.024 15.7744 6.37431 15.3563 6.37431H8.28237ZM4.9601 10.1938C4.34989 10.1938 3.86398 9.69658 3.86398 9.09766C3.86398 8.49875 4.34989 8.01284 4.9601 8.01284C5.55902 8.01284 6.05623 8.48745 6.05623 9.09766C6.05623 9.69658 5.55902 10.1938 4.9601 10.1938ZM8.28237 9.86608C7.84166 9.86608 7.50265 9.52707 7.50265 9.09766C7.50265 8.66825 7.84166 8.32925 8.28237 8.32925H15.3563C15.7857 8.32925 16.1247 8.66825 16.1247 9.09766C16.1247 9.52707 15.7857 9.86608 15.3563 9.86608H8.28237ZM4.9601 13.8664C4.36119 13.8664 3.86398 13.3578 3.86398 12.7702C3.86398 12.1713 4.36119 11.6741 4.9601 11.6741C5.55902 11.6741 6.05623 12.16 6.05623 12.7702C6.05623 13.3691 5.55902 13.8664 4.9601 13.8664ZM8.28237 13.5274C7.85296 13.5274 7.50265 13.1883 7.50265 12.7702C7.50265 12.3408 7.84166 12.0018 8.28237 12.0018H15.3563C15.7857 12.0018 16.1247 12.3408 16.1247 12.7702C16.1247 13.1883 15.7744 13.5274 15.3563 13.5274H8.28237Z" fill="black"/>
</svg>
